# xmcd CD database file
#
# Track frame offsets:
#	150
#	14771
#	24642
#	36009
#	47674
#	59259
#
# Disc length: 940 seconds
#
# Revision: 0
# Processed by: cddbd v1.5.2PL0 Copyright (c) Steve Scherf et al.
# Submitted via: CDex 1.51
#
DISCID=4903aa06
DTITLE=Johnny Horsepower - Johnny Horsepower
DYEAR=2011
DGENRE=Country
TTITLE0=Ghost Riders (in the sky)
TTITLE1=Luther Played The Boogie
TTITLE2=I Heard That Lonesome Whistle Blow
TTITLE3=Mean Eyed Cat
TTITLE4=Doggone Lonsesome
TTITLE5=Bonus Trilogy
EXTD=YEAR: 2011
EXTT0=
EXTT1=
EXTT2=
EXTT3=
EXTT4=
EXTT5=
PLAYORDER=
